<svg width="24" height="24" viewBox="0 0 24 24" fill="none" xmlns="http://www.w3.org/2000/svg">
<g clip-path="url(#clip0_183_84)">
<path d="M18 7C19.25 8.67 20 10.75 20 13C20 18.52 15.52 23 10 23C4.48 23 0 18.52 0 13C0 7.48 4.48 3 10 3M10 1V13L19.6 5.8C17.41 2.89 13.92 1 10 1Z" fill="#88837D"/>
<path d="M18 7C19.25 8.67 20 10.75 20 13C20 18.52 15.52 23 10 23C4.48 23 0 18.52 0 13C0 7.48 4.48 3 10 3M10 1V13L19.6 5.8C17.41 2.89 13.92 1 10 1Z" stroke="#88837D" stroke-opacity="0.07" stroke-width="2"/>
</g>
<defs>
<clipPath id="clip0_183_84">
<rect width="24" height="24" fill="white"/>
</clipPath>
</defs>
</svg>
