<svg width="24" height="24" viewBox="0 0 24 24" fill="none" xmlns="http://www.w3.org/2000/svg">
<g clip-path="url(#clip0_183_78)">
<path d="M6.64706 2H8.05882C8.43325 2 8.79233 2.13308 9.05709 2.36997C9.32185 2.60686 9.47059 2.92815 9.47059 3.26316V4.52632H16.5294V3.26316C16.5294 2.92815 16.6782 2.60686 16.9429 2.36997C17.2077 2.13308 17.5668 2 17.9412 2H19.3529C19.7274 2 20.0865 2.13308 20.3512 2.36997C20.616 2.60686 20.7647 2.92815 20.7647 3.26316V4.52632C21.888 4.52632 22.9652 4.92556 23.7595 5.63623C24.5538 6.34689 25 7.31076 25 8.31579V22.2105C25 23.2156 24.5538 24.1794 23.7595 24.8901C22.9652 25.6008 21.888 26 20.7647 26H5.23529C4.11202 26 3.03476 25.6008 2.24049 24.8901C1.44622 24.1794 1 23.2156 1 22.2105V8.31579C1 7.31076 1.44622 6.34689 2.24049 5.63623C3.03476 4.92556 4.11202 4.52632 5.23529 4.52632V3.26316C5.23529 2.92815 5.38403 2.60686 5.64879 2.36997C5.91355 2.13308 6.27264 2 6.64706 2ZM17.9412 4.52632H19.3529V3.26316H17.9412V4.52632ZM8.05882 4.52632V3.26316H6.64706V4.52632H8.05882ZM5.23529 5.78947C4.48645 5.78947 3.76827 6.05564 3.23876 6.52941C2.70924 7.00319 2.41176 7.64577 2.41176 8.31579V9.57895H23.5882V8.31579C23.5882 7.64577 23.2908 7.00319 22.7612 6.52941C22.2317 6.05564 21.5136 5.78947 20.7647 5.78947H5.23529ZM2.41176 22.2105C2.41176 22.8805 2.70924 23.5231 3.23876 23.9969C3.76827 24.4707 4.48645 24.7368 5.23529 24.7368H20.7647C21.5136 24.7368 22.2317 24.4707 22.7612 23.9969C23.2908 23.5231 23.5882 22.8805 23.5882 22.2105V10.8421H2.41176V22.2105ZM13.7059 15.8947H20.7647V22.2105H13.7059V15.8947ZM15.1176 17.1579V20.9474H19.3529V17.1579H15.1176Z" fill="#88837D"/>
</g>
<defs>
<clipPath id="clip0_183_78">
<rect width="24" height="24" fill="white"/>
</clipPath>
</defs>
</svg>
