<svg width="24" height="24" viewBox="0 0 24 24" fill="none" xmlns="http://www.w3.org/2000/svg">
<path d="M5 11.81C5 10.452 5 9.773 5.274 9.176C5.549 8.579 6.064 8.138 7.095 7.254L8.095 6.397C9.96 4.8 10.89 4 12 4C13.11 4 14.041 4.799 15.905 6.396L16.905 7.253C17.935 8.137 18.451 8.578 18.725 9.175C19 9.772 19 10.451 19 11.809V16.05C19 17.936 19 18.878 18.414 19.464C17.828 20.05 16.886 20.05 15 20.05H9C7.114 20.05 6.172 20.05 5.586 19.464C5 18.878 5 17.936 5 16.05V11.81Z" stroke="#88837D"/>
<path d="M14.5 20.0498V15.0498C14.5 14.7846 14.3946 14.5302 14.2071 14.3427C14.0196 14.1552 13.7652 14.0498 13.5 14.0498H10.5C10.2348 14.0498 9.98043 14.1552 9.79289 14.3427C9.60536 14.5302 9.5 14.7846 9.5 15.0498V20.0498" stroke="#88837D" stroke-linecap="round" stroke-linejoin="round"/>
</svg>
