<svg width="19" height="21" viewBox="0 0 19 21" fill="none" xmlns="http://www.w3.org/2000/svg">
<path d="M5.502 15H9.502M5.502 10H13.502M5.004 2.5C3.448 2.547 2.521 2.72 1.879 3.362C1 4.242 1 5.657 1 8.488V14.994C1 17.826 1 19.241 1.879 20.121C2.757 21 4.172 21 7 21H12C14.829 21 16.243 21 17.121 20.12C18.001 19.241 18.001 17.826 18.001 14.994V8.488C18.001 5.658 18.001 4.242 17.121 3.362C16.48 2.72 15.552 2.547 13.996 2.5" stroke="#236DDC" stroke-width="1.5" stroke-linecap="round" stroke-linejoin="round"/>
<path d="M5 2.75C5 1.784 5.784 1 6.75 1H12.25C12.7141 1 13.1592 1.18437 13.4874 1.51256C13.8156 1.84075 14 2.28587 14 2.75C14 3.21413 13.8156 3.65925 13.4874 3.98744C13.1592 4.31563 12.7141 4.5 12.25 4.5H6.75C6.28587 4.5 5.84075 4.31563 5.51256 3.98744C5.18437 3.65925 5 3.21413 5 2.75Z" stroke="#236DDC" stroke-width="1.5" stroke-linecap="round" stroke-linejoin="round"/>
</svg>
