<svg width="24" height="24" viewBox="0 0 24 24" fill="none" xmlns="http://www.w3.org/2000/svg">
<path d="M5.7 3C4.98392 3 4.29716 3.29944 3.79081 3.83243C3.28446 4.36543 3 5.08833 3 5.84211V18.1579C3 18.9117 3.28446 19.6346 3.79081 20.1676C4.29716 20.7006 4.98392 21 5.7 21H17.4C18.1161 21 18.8028 20.7006 19.3092 20.1676C19.8155 19.6346 20.1 18.9117 20.1 18.1579V16.4811C20.667 15.9411 21 15.1737 21 14.3684V9.63158C21 8.82632 20.667 8.05895 20.1 7.51895V5.84211C20.1 5.08833 19.8155 4.36543 19.3092 3.83243C18.8028 3.29944 18.1161 3 17.4 3H5.7ZM5.7 3.94737H17.4C17.8774 3.94737 18.3352 4.14699 18.6728 4.50232C19.0104 4.85766 19.2 5.33959 19.2 5.84211V6.95053C18.912 6.84632 18.606 6.78947 18.3 6.78947H12.9C12.1839 6.78947 11.4972 7.08891 10.9908 7.62191C10.4845 8.15491 10.2 8.87781 10.2 9.63158V14.3684C10.2 15.1222 10.4845 15.8451 10.9908 16.3781C11.4972 16.9111 12.1839 17.2105 12.9 17.2105H18.3C18.606 17.2105 18.912 17.1537 19.2 17.0495V18.1579C19.2 18.6604 19.0104 19.1423 18.6728 19.4977C18.3352 19.853 17.8774 20.0526 17.4 20.0526H5.7C5.22261 20.0526 4.76477 19.853 4.42721 19.4977C4.08964 19.1423 3.9 18.6604 3.9 18.1579V5.84211C3.9 5.33959 4.08964 4.85766 4.42721 4.50232C4.76477 4.14699 5.22261 3.94737 5.7 3.94737ZM12.9 7.73684H18.3C18.7774 7.73684 19.2352 7.93647 19.5728 8.2918C19.9104 8.64713 20.1 9.12906 20.1 9.63158V14.3684C20.1 14.8709 19.9104 15.3529 19.5728 15.7082C19.2352 16.0635 18.7774 16.2632 18.3 16.2632H12.9C12.4226 16.2632 11.9648 16.0635 11.6272 15.7082C11.2896 15.3529 11.1 14.8709 11.1 14.3684V9.63158C11.1 9.12906 11.2896 8.64713 11.6272 8.2918C11.9648 7.93647 12.4226 7.73684 12.9 7.73684ZM15.15 9.63158C14.5533 9.63158 13.981 9.88111 13.559 10.3253C13.1371 10.7694 12.9 11.3719 12.9 12C12.9 12.6281 13.1371 13.2306 13.559 13.6747C13.981 14.1189 14.5533 14.3684 15.15 14.3684C15.7467 14.3684 16.319 14.1189 16.741 13.6747C17.1629 13.2306 17.4 12.6281 17.4 12C17.4 11.3719 17.1629 10.7694 16.741 10.3253C16.319 9.88111 15.7467 9.63158 15.15 9.63158ZM15.15 10.5789C15.508 10.5789 15.8514 10.7287 16.1046 10.9952C16.3578 11.2617 16.5 11.6231 16.5 12C16.5 12.3769 16.3578 12.7383 16.1046 13.0048C15.8514 13.2713 15.508 13.4211 15.15 13.4211C14.792 13.4211 14.4486 13.2713 14.1954 13.0048C13.9422 12.7383 13.8 12.3769 13.8 12C13.8 11.6231 13.9422 11.2617 14.1954 10.9952C14.4486 10.7287 14.792 10.5789 15.15 10.5789Z" fill="#88837D"/>
</svg>
